<svg xmlns="http://www.w3.org/2000/svg" viewBox="0 0 200 100" fill="none">
  <defs>
    <linearGradient id="hatchGrad" x1="0%" y1="0%" x2="0%" y2="100%">
      <stop offset="0%" style="stop-color:#4a5568;stop-opacity:1" />
      <stop offset="100%" style="stop-color:#2d3748;stop-opacity:1" />
    </linearGradient>
  </defs>
  <!-- Hatchback Body - Shorter rear -->
  <path d="M25 65 L35 65 L40 55 L55 48 L75 45 L95 43 L130 43 L155 50 L165 58 L170 65 L175 65 L180 70 L175 75 L155 75 L150 80 L130 80 L125 75 L75 75 L70 80 L50 80 L45 75 L25 75 L20 70 Z" fill="url(#hatchGrad)" stroke="#1a202c" stroke-width="1.5"/>
  <!-- Windows -->
  <path d="M58 50 L78 46 L128 46 L152 55 L145 62 L65 62 Z" fill="#a0aec0" stroke="#1a202c" stroke-width="0.5"/>
  <line x1="100" y1="46" x2="100" y2="62" stroke="#1a202c" stroke-width="0.5"/>
  <!-- Wheels -->
  <circle cx="55" cy="75" r="11" fill="#1a202c"/>
  <circle cx="55" cy="75" r="7" fill="#4a5568"/>
  <circle cx="55" cy="75" r="2.5" fill="#a0aec0"/>
  <circle cx="145" cy="75" r="11" fill="#1a202c"/>
  <circle cx="145" cy="75" r="7" fill="#4a5568"/>
  <circle cx="145" cy="75" r="2.5" fill="#a0aec0"/>
  <!-- Details -->
  <line x1="165" y1="60" x2="172" y2="63" stroke="#a0aec0" stroke-width="1.5"/>
  <rect x="35" y="60" width="8" height="4" rx="1" fill="#a0aec0"/>
</svg>