<svg xmlns="http://www.w3.org/2000/svg" viewBox="0 0 200 100" fill="none">
  <defs>
    <linearGradient id="pickupGrad" x1="0%" y1="0%" x2="0%" y2="100%">
      <stop offset="0%" style="stop-color:#4a5568;stop-opacity:1" />
      <stop offset="100%" style="stop-color:#2d3748;stop-opacity:1" />
    </linearGradient>
  </defs>
  <!-- Pickup Body - Cab and bed -->
  <path d="M15 65 L30 65 L35 50 L50 38 L85 35 L100 35 L100 65 L165 65 L175 60 L180 65 L180 70 L175 75 L155 75 L150 80 L130 80 L125 75 L75 75 L70 80 L50 80 L45 75 L25 75 L15 70 Z" fill="url(#pickupGrad)" stroke="#1a202c" stroke-width="1.5"/>
  <!-- Truck Bed -->
  <rect x="100" y="55" width="65" height="15" fill="#2d3748" stroke="#1a202c" stroke-width="1"/>
  <!-- Windows -->
  <path d="M52 40 L85 37 L95 37 L95 55 L60 55 Z" fill="#a0aec0" stroke="#1a202c" stroke-width="0.5"/>
  <!-- Wheels -->
  <circle cx="55" cy="75" r="12" fill="#1a202c"/>
  <circle cx="55" cy="75" r="8" fill="#4a5568"/>
  <circle cx="55" cy="75" r="3" fill="#a0aec0"/>
  <circle cx="150" cy="75" r="12" fill="#1a202c"/>
  <circle cx="150" cy="75" r="8" fill="#4a5568"/>
  <circle cx="150" cy="75" r="3" fill="#a0aec0"/>
  <!-- Details -->
  <line x1="170" y1="63" x2="178" y2="65" stroke="#a0aec0" stroke-width="1.5"/>
  <rect x="25" y="58" width="10" height="5" rx="1" fill="#a0aec0"/>
</svg>