<svg xmlns="http://www.w3.org/2000/svg" viewBox="0 0 200 100" fill="none">
  <defs>
    <linearGradient id="sportsGrad" x1="0%" y1="0%" x2="0%" y2="100%">
      <stop offset="0%" style="stop-color:#4a5568;stop-opacity:1" />
      <stop offset="100%" style="stop-color:#2d3748;stop-opacity:1" />
    </linearGradient>
  </defs>
  <!-- Sports Car Body - Low, sleek -->
  <path d="M20 68 L40 68 L50 60 L60 55 L85 48 L115 46 L145 50 L165 58 L175 62 L180 65 L180 70 L175 75 L155 75 L150 80 L130 80 L125 75 L75 75 L70 80 L50 80 L45 75 L25 75 L15 70 Z" fill="url(#sportsGrad)" stroke="#1a202c" stroke-width="1.5"/>
  <!-- Windows -->
  <path d="M88 50 L115 48 L142 52 L152 58 L140 62 L95 62 Z" fill="#a0aec0" stroke="#1a202c" stroke-width="0.5"/>
  <!-- Wheels -->
  <circle cx="55" cy="75" r="11" fill="#1a202c"/>
  <circle cx="55" cy="75" r="7" fill="#4a5568"/>
  <circle cx="55" cy="75" r="2.5" fill="#a0aec0"/>
  <circle cx="145" cy="75" r="11" fill="#1a202c"/>
  <circle cx="145" cy="75" r="7" fill="#4a5568"/>
  <circle cx="145" cy="75" r="2.5" fill="#a0aec0"/>
  <!-- Details -->
  <line x1="170" y1="64" x2="178" y2="66" stroke="#a0aec0" stroke-width="1.5"/>
  <line x1="50" y1="62" x2="60" y2="58" stroke="#a0aec0" stroke-width="1"/>
  <rect x="30" y="65" width="10" height="3" rx="1" fill="#a0aec0"/>
</svg>